<svg xmlns="http://www.w3.org/2000/svg" width="17" height="14">
    <path fill="#555963" fill-rule="evenodd" d="M15 3c.267.637.269.79 0 1 .269 4.614-3.239 10-10 10-1.624 0-3.456-.585-5-2 .273.444.551.461 1 0 1.467.461 2.97-.105 4-1-1.363-.081-2.651-1.101-3-3 .118.535.337.556 1 1-.12-.444.188-.486 0-1-1.115.108-2.317-1.32-2-3-.317-.049-.317-.063 0 0 .153.187.692.346 1 0-.673-.27-1.289-1.35-1-3-.289-.225-.118-.832 0-1 1.903 1.785 4.474 3.191 7 3 .313.08.283-.189 0 0 .283-2.418 1.843-4 4-4 .773 0 1.68.428 2 1 1.11-.044 1.856-.338 3-1-.73 1.082-1.283 1.775-2 2 .703.126 1.374-.062 2 0-.467.366-1.059.988-2 1z"/>
</svg>
